<svg width="44" height="44" viewBox="0 0 44 44" fill="none" xmlns="http://www.w3.org/2000/svg">
<path d="M7.33325 20.5C7.33325 18.6144 7.33325 17.6716 7.91904 17.0858C8.50482 16.5 9.44763 16.5 11.3333 16.5H32.6666C34.5522 16.5 35.495 16.5 36.0808 17.0858C36.6666 17.6716 36.6666 18.6144 36.6666 20.5V32.5C36.6666 35.3284 36.6666 36.7426 35.7879 37.6213C34.9092 38.5 33.495 38.5 30.6666 38.5H13.3333C10.5048 38.5 9.09061 38.5 8.21193 37.6213C7.33325 36.7426 7.33325 35.3284 7.33325 32.5V20.5Z" stroke="black" stroke-width="2"/>
<path d="M29.3332 14.6667V12.8333C29.3332 10.66 29.3332 9.57331 29.0011 8.70816C28.4933 7.38524 27.4479 6.33992 26.125 5.8321C25.2599 5.5 24.1732 5.5 21.9998 5.5V5.5C19.8265 5.5 18.7398 5.5 17.8747 5.8321C16.5517 6.33992 15.5064 7.38524 14.9986 8.70816C14.6665 9.57331 14.6665 10.66 14.6665 12.8333V14.6667" stroke="black" stroke-width="2" stroke-linecap="round"/>
<circle cx="21.9999" cy="27.5" r="3.66667" fill="black"/>
</svg>
