<svg width="38" height="38" viewBox="0 0 38 38" fill="none" xmlns="http://www.w3.org/2000/svg">
<path d="M9.33149 13.1634L12.0997 18.0078C12.3765 18.4923 12.515 18.7345 12.515 19.0001C12.515 19.2656 12.3765 19.5079 12.0997 19.9924L9.33149 24.8367C8.09318 27.0038 7.47403 28.0873 7.95685 28.6246C8.43968 29.1619 9.58299 28.6617 11.8696 27.6613L27.4786 20.8324C29.2741 20.0469 30.1718 19.6541 30.1718 19.0001C30.1718 18.3461 29.2741 17.9533 27.4786 17.1678L11.8696 10.3389C9.58299 9.33845 8.43968 8.83826 7.95685 9.37558C7.47403 9.9129 8.09318 10.9964 9.33149 13.1634Z" stroke="white" stroke-width="2"/>
</svg>
