<svg width="38" height="38" viewBox="0 0 38 38" fill="none" xmlns="http://www.w3.org/2000/svg">
<rect x="4.75" y="9.5" width="28.5" height="23.75" rx="2" stroke="#33363F" stroke-width="2"/>
<path d="M4.75 13.5C4.75 11.6144 4.75 10.6716 5.33579 10.0858C5.92157 9.5 6.86438 9.5 8.75 9.5H29.25C31.1356 9.5 32.0784 9.5 32.6642 10.0858C33.25 10.6716 33.25 11.6144 33.25 13.5V15.8333H4.75V13.5Z" fill="black"/>
<path d="M11.0833 4.75L11.0833 9.5" stroke="black" stroke-width="2" stroke-linecap="round"/>
<path d="M26.9167 4.75L26.9167 9.5" stroke="black" stroke-width="2" stroke-linecap="round"/>
<rect x="11.0833" y="19" width="6.33333" height="3.16667" rx="0.5" fill="black"/>
<rect x="11.0833" y="25.3333" width="6.33333" height="3.16667" rx="0.5" fill="black"/>
<rect x="20.5833" y="19" width="6.33333" height="3.16667" rx="0.5" fill="black"/>
<rect x="20.5833" y="25.3333" width="6.33333" height="3.16667" rx="0.5" fill="black"/>
</svg>
