<svg width="38" height="38" viewBox="0 0 38 38" fill="none" xmlns="http://www.w3.org/2000/svg">
<path d="M7.91663 20.2026C7.91663 18.0528 7.91663 16.9779 8.35119 16.0331C8.78575 15.0883 9.60187 14.3887 11.2341 12.9897L12.8174 11.6325C15.7677 9.10375 17.2428 7.83936 19 7.83936C20.7571 7.83936 22.2322 9.10375 25.1825 11.6325L26.7658 12.9897C28.398 14.3887 29.2142 15.0883 29.6487 16.0331C30.0833 16.9779 30.0833 18.0528 30.0833 20.2026V26.9166C30.0833 29.9021 30.0833 31.3949 29.1558 32.3224C28.2283 33.2499 26.7355 33.2499 23.75 33.2499H14.25C11.2644 33.2499 9.77162 33.2499 8.84412 32.3224C7.91663 31.3949 7.91663 29.9021 7.91663 26.9166V20.2026Z" stroke="white" stroke-width="2"/>
<path d="M22.9583 33.25V24.75C22.9583 24.1977 22.5106 23.75 21.9583 23.75H16.0416C15.4893 23.75 15.0416 24.1977 15.0416 24.75V33.25" stroke="white" stroke-width="2" stroke-linecap="round" stroke-linejoin="round"/>
</svg>
