<svg width="64" height="64" viewBox="0 0 64 64" fill="none" xmlns="http://www.w3.org/2000/svg">
<path fill-rule="evenodd" clip-rule="evenodd" d="M56 32C56 45.2548 45.2548 56 32 56C18.7452 56 8 45.2548 8 32C8 18.7452 18.7452 8 32 8C45.2548 8 56 18.7452 56 32ZM19.212 44.788C18.0404 43.6164 18.0404 41.7169 19.212 40.5453L27.7574 32L19.212 23.4547C18.0404 22.2831 18.0404 20.3836 19.212 19.212C20.3836 18.0404 22.2831 18.0404 23.4547 19.212L32 27.7574L40.5453 19.212C41.7169 18.0404 43.6164 18.0404 44.788 19.212C45.9596 20.3836 45.9596 22.2831 44.788 23.4547L36.2426 32L44.788 40.5453C45.9596 41.7169 45.9596 43.6164 44.788 44.788C43.6164 45.9596 41.7169 45.9596 40.5453 44.788L32 36.2426L23.4547 44.788C22.2831 45.9596 20.3836 45.9596 19.212 44.788Z" fill="white"/>
</svg>
