<svg width="38" height="38" viewBox="0 0 38 38" fill="none" xmlns="http://www.w3.org/2000/svg">
<path d="M7.91663 20.2027C7.91663 18.0529 7.91663 16.978 8.35119 16.0332C8.78575 15.0884 9.60187 14.3888 11.2341 12.9898L12.8174 11.6326C15.7677 9.10384 17.2428 7.83945 19 7.83945C20.7571 7.83945 22.2322 9.10384 25.1825 11.6326L26.7658 12.9898C28.398 14.3888 29.2142 15.0884 29.6487 16.0332C30.0833 16.978 30.0833 18.0529 30.0833 20.2027V26.9167C30.0833 29.9022 30.0833 31.395 29.1558 32.3225C28.2283 33.25 26.7355 33.25 23.75 33.25H14.25C11.2644 33.25 9.77162 33.25 8.84412 32.3225C7.91663 31.395 7.91663 29.9022 7.91663 26.9167V20.2027Z" stroke="black" stroke-width="2"/>
<path d="M22.9583 33.25V24.75C22.9583 24.1977 22.5106 23.75 21.9583 23.75H16.0416C15.4893 23.75 15.0416 24.1977 15.0416 24.75V33.25" stroke="black" stroke-width="2" stroke-linecap="round" stroke-linejoin="round"/>
</svg>
